# Blender 4.3.2
# www.blender.org
mtllib bulet.mtl
o Cube.003
v 0.429732 0.006107 -0.427516
v -0.425673 0.006107 -0.427516
v 0.429732 0.006107 0.427040
v -0.425673 0.006107 0.427040
v 0.002030 0.006107 -0.604501
v 0.002030 0.006107 0.604023
v -0.602833 0.006107 -0.000238
v 0.606892 0.006107 -0.000238
v 0.427549 4.301579 -0.427516
v -0.427856 4.301579 -0.427516
v 0.427549 4.301579 0.427040
v -0.427856 4.301579 0.427040
v -0.000154 4.301579 -0.604501
v -0.000154 4.301579 0.604023
v -0.605016 4.301579 -0.000238
v 0.604709 4.301579 -0.000238
v 0.137440 5.377134 -0.137695
v -0.137746 5.377134 -0.137695
v 0.137440 5.377134 0.137218
v -0.137746 5.377134 0.137218
v -0.000154 5.377134 -0.194631
v -0.000154 5.377134 0.194155
v -0.194740 5.377134 -0.000238
v 0.194434 5.377134 -0.000238
v -0.426764 2.153843 -0.427517
v -0.603924 2.153843 -0.000238
v 0.000938 2.153843 -0.604501
v 0.428641 2.153843 -0.427517
v -0.426764 2.153843 0.427040
v 0.605801 2.153843 -0.000238
v 0.428641 2.153843 0.427040
v 0.000938 2.153843 0.604023
vn -0.9237 -0.0005 -0.3830
vn 0.3824 0.0002 -0.9240
vn -0.9237 -0.0005 0.3830
vn -0.3824 -0.0002 -0.9240
vn 0.9237 0.0005 -0.3830
vn 0.3824 0.0002 0.9240
vn 0.9237 0.0005 0.3830
vn -0.3824 -0.0002 0.9240
vn -0.0000 -1.0000 -0.0000
vn -0.8712 0.3323 -0.3612
vn 0.3607 0.3321 -0.8716
vn -0.8712 0.3323 0.3612
vn -0.3607 0.3321 -0.8716
vn 0.8712 0.3323 -0.3612
vn 0.3607 0.3321 0.8716
vn 0.8712 0.3323 0.3612
vn -0.3607 0.3321 0.8716
vn -0.0000 1.0000 -0.0000
vt 0.559210 0.155956
vt 0.558260 0.155956
vt 0.557310 0.155956
s 0
usemtl Material.002
f 26/1/1 10/1/1 25/1/1
f 27/2/2 9/3/2 28/3/2
f 26/1/3 12/1/3 15/1/3
f 25/1/4 13/2/4 27/2/4
f 28/3/5 16/3/5 30/3/5
f 11/3/6 32/2/6 31/3/6
f 16/3/7 31/3/7 30/3/7
f 14/2/8 29/1/8 32/2/8
f 8/3/9 6/2/9 7/1/9
f 10/1/10 23/1/10 18/1/10
f 13/2/11 17/3/11 9/3/11
f 12/1/12 23/1/12 15/1/12
f 18/1/13 13/2/13 10/1/13
f 9/3/14 24/3/14 16/3/14
f 19/3/15 14/2/15 11/3/15
f 24/3/16 11/3/16 16/3/16
f 14/2/17 20/1/17 12/1/17
f 22/2/18 24/3/18 21/2/18
f 32/2/8 4/1/8 6/2/8
f 30/3/7 3/3/7 8/3/7
f 31/3/6 6/2/6 3/3/6
f 1/3/5 30/3/5 8/3/5
f 2/1/4 27/2/4 5/2/4
f 7/1/3 29/1/3 26/1/3
f 5/2/2 28/3/2 1/3/2
f 7/1/1 25/1/1 2/1/1
f 26/1/1 15/1/1 10/1/1
f 27/2/2 13/2/2 9/3/2
f 26/1/3 29/1/3 12/1/3
f 25/1/4 10/1/4 13/2/4
f 28/3/5 9/3/5 16/3/5
f 11/3/6 14/2/6 32/2/6
f 16/3/7 11/3/7 31/3/7
f 14/2/8 12/1/8 29/1/8
f 7/1/9 2/1/9 5/2/9
f 5/2/9 1/3/9 8/3/9
f 8/3/9 3/3/9 6/2/9
f 6/2/9 4/1/9 7/1/9
f 7/1/9 5/2/9 8/3/9
f 10/1/10 15/1/10 23/1/10
f 13/2/11 21/2/11 17/3/11
f 12/1/12 20/1/12 23/1/12
f 18/1/13 21/2/13 13/2/13
f 9/3/14 17/3/14 24/3/14
f 19/3/15 22/2/15 14/2/15
f 24/3/16 19/3/16 11/3/16
f 14/2/17 22/2/17 20/1/17
f 21/2/18 18/1/18 23/1/18
f 23/1/18 20/1/18 22/2/18
f 22/2/18 19/3/18 24/3/18
f 24/3/18 17/3/18 21/2/18
f 21/2/18 23/1/18 22/2/18
f 32/2/8 29/1/8 4/1/8
f 30/3/7 31/3/7 3/3/7
f 31/3/6 32/2/6 6/2/6
f 1/3/5 28/3/5 30/3/5
f 2/1/4 25/1/4 27/2/4
f 7/1/3 4/1/3 29/1/3
f 5/2/2 27/2/2 28/3/2
f 7/1/1 26/1/1 25/1/1
