# Blender 4.3.2
# www.blender.org
mtllib cev.mtl
o Cube.001
v -0.606381 4.937579 -5.035678
v 0.606381 4.937579 -5.035678
v -0.606381 6.150341 -5.035678
v 0.606381 6.150341 -5.035678
v 0.000000 4.686408 -5.035678
v 0.000000 6.401512 -5.035678
v 0.857552 5.543960 -5.035678
v -0.857552 5.543960 -5.035678
v -0.606381 4.937579 -16.055439
v 0.606381 4.937579 -16.055439
v -0.606381 6.150341 -16.055439
v 0.606381 6.150341 -16.055439
v 0.000000 4.686408 -16.055439
v 0.000000 6.401512 -16.055439
v 0.857552 5.543960 -16.055439
v -0.857552 5.543960 -16.055439
v 0.000000 4.686408 -7.239631
v 0.000000 4.686408 -9.443583
v 0.000000 4.686408 -11.647535
v 0.000000 4.686408 -13.851487
v -0.606381 4.937579 -13.851487
v -0.606381 4.937579 -11.647535
v -0.606381 4.937579 -9.443583
v -0.606381 4.937579 -7.239631
v 0.000000 6.401512 -7.239631
v 0.000000 6.401512 -9.443583
v 0.000000 6.401512 -11.647535
v 0.000000 6.401512 -13.851487
v 0.606381 6.150341 -13.851487
v 0.606381 6.150341 -11.647535
v 0.606381 6.150341 -9.443583
v 0.606381 6.150341 -7.239631
v 0.857552 5.543960 -7.239631
v 0.857552 5.543960 -9.443583
v 0.857552 5.543960 -11.647535
v 0.857552 5.543960 -13.851487
v 0.606381 4.937579 -13.851487
v 0.606381 4.937579 -11.647535
v 0.606381 4.937579 -9.443583
v 0.606381 4.937579 -7.239631
v -0.857552 5.543960 -7.239631
v -0.857552 5.543960 -9.443583
v -0.857552 5.543960 -11.647535
v -0.857552 5.543960 -13.851487
v -0.606381 6.150341 -13.851487
v -0.606381 6.150341 -11.647535
v -0.606381 6.150341 -9.443583
v -0.606381 6.150341 -7.239631
v 0.367013 5.177311 -4.848492
v -0.367014 5.177311 -4.848492
v 0.367013 5.910610 -4.815787
v -0.367014 5.910610 -4.815787
v -0.000000 5.025440 -4.855266
v -0.000000 6.062481 -4.809013
v -0.519036 5.543961 -4.832139
v 0.519035 5.543961 -4.832139
v 0.361248 5.177311 -16.192265
v -0.372779 5.177311 -16.192266
v 0.361248 5.910610 -16.159561
v -0.372779 5.910610 -16.159561
v -0.005765 5.025440 -16.199039
v -0.005766 6.062481 -16.152786
v -0.524801 5.543961 -16.175913
v 0.513270 5.543961 -16.175913
v 0.000000 4.441600 -21.192808
v 0.779486 4.764474 -21.192808
v 0.000000 6.646319 -21.192808
v 0.779486 6.323445 -21.192808
v 1.102359 5.543960 -21.192808
v -1.102359 5.543960 -21.192808
v -0.779485 6.323445 -21.192808
v -0.779485 4.764474 -21.192808
v -0.005765 5.025440 -20.721237
v -0.372779 5.177311 -20.714462
v -0.005766 6.062481 -20.674984
v -0.372779 5.910610 -20.681759
v -0.524801 5.543961 -20.698109
v 0.513270 5.543961 -20.698109
v 0.361248 5.910610 -20.681759
v 0.361248 5.177311 -20.714462
v 0.000000 6.401512 -18.316538
v -0.606381 6.150341 -18.316538
v -0.606381 4.937579 -18.316538
v 0.000000 4.686408 -18.316538
v 0.857552 5.543960 -18.316538
v 0.606381 4.937579 -18.316538
v -0.857552 5.543960 -18.316538
v 0.606381 6.150341 -18.316538
v -0.779485 6.323445 -19.739519
v 0.000000 4.441600 -19.739519
v 1.102359 5.543960 -19.739519
v 0.000000 6.646319 -19.739519
v -0.779485 4.764474 -19.739519
v 0.779486 4.764474 -19.739519
v -1.102359 5.543960 -19.739519
v 0.779486 6.323445 -19.739519
vn 0.3827 0.9239 -0.0000
vn -0.3827 -0.9239 -0.0000
vn -0.9239 0.3827 -0.0000
vn 0.9239 -0.3827 -0.0000
vn -0.3827 0.9239 -0.0000
vn 0.3827 -0.9239 -0.0000
vn 0.9239 0.3827 -0.0000
vn -0.9239 -0.3827 -0.0000
vn 0.9237 0.3830 -0.0005
vn -0.3824 0.9240 0.0002
vn 0.9238 -0.3830 -0.0005
vn 0.3824 0.9240 -0.0002
vn -0.9238 0.3830 0.0005
vn -0.3824 -0.9240 0.0002
vn -0.9237 -0.3830 0.0005
vn 0.3824 -0.9240 -0.0002
vn -0.3824 -0.9240 -0.0000
vn 0.9237 -0.3830 -0.0000
vn -0.9237 -0.3830 -0.0000
vn 0.3824 0.9240 -0.0000
vn -0.2638 0.6369 0.7244
vn 0.2627 0.6341 0.7272
vn 0.6214 0.2574 0.7400
vn 0.6098 -0.2526 0.7512
vn 0.2380 -0.6089 0.7567
vn -0.2437 -0.6221 0.7441
vn -0.6225 -0.2905 0.7267
vn -0.6558 0.2400 0.7158
vn -0.3824 0.9240 -0.0000
vn -0.9237 0.3830 -0.0000
vn 0.9237 0.3830 -0.0000
vn 0.3824 -0.9240 -0.0000
vn 0.9124 -0.3779 -0.1570
vn -0.9124 -0.3779 -0.1570
vn -0.3779 -0.9124 -0.1570
vn -0.3779 0.9124 -0.1570
vn 0.3779 0.9124 -0.1570
vn 0.3779 -0.9124 -0.1570
vn -0.9124 0.3779 -0.1570
vn 0.9124 0.3779 -0.1570
vn -0.2777 0.6390 0.7174
vn 0.2765 0.6361 0.7203
vn 0.6492 0.2370 0.7227
vn 0.6158 -0.2881 0.7333
vn 0.2534 -0.6117 0.7494
vn -0.2525 -0.6095 0.7515
vn -0.6166 -0.2554 0.7447
vn -0.6281 0.2602 0.7333
vt 0.551128 0.148343
vt 0.551128 0.147324
vt 0.551128 0.149362
vt 0.559210 0.155956
vt 0.558260 0.155956
vt 0.557310 0.155956
s 0
usemtl Material.002
f 20/1/1 9/2/1 21/2/1
f 28/1/2 12/3/2 29/3/2
f 36/3/3 10/3/3 37/3/3
f 44/2/4 11/2/4 45/2/4
f 37/3/5 13/1/5 20/1/5
f 45/2/6 14/1/6 28/1/6
f 21/2/7 16/2/7 44/2/7
f 29/3/8 15/3/8 36/3/8
f 4/3/8 33/3/8 7/3/8
f 32/3/8 34/3/8 33/3/8
f 31/3/8 35/3/8 34/3/8
f 30/3/8 36/3/8 35/3/8
f 1/2/7 41/2/7 8/2/7
f 24/2/7 42/2/7 41/2/7
f 23/2/7 43/2/7 42/2/7
f 22/2/7 44/2/7 43/2/7
f 3/2/6 25/1/6 6/1/6
f 48/2/6 26/1/6 25/1/6
f 47/2/6 27/1/6 26/1/6
f 46/2/6 28/1/6 27/1/6
f 2/3/5 17/1/5 5/1/5
f 40/3/5 18/1/5 17/1/5
f 39/3/5 19/1/5 18/1/5
f 38/3/5 20/1/5 19/1/5
f 8/2/4 48/2/4 3/2/4
f 41/2/4 47/2/4 48/2/4
f 42/2/4 46/2/4 47/2/4
f 43/2/4 45/2/4 46/2/4
f 7/3/3 40/3/3 2/3/3
f 33/3/3 39/3/3 40/3/3
f 34/3/3 38/3/3 39/3/3
f 35/3/3 37/3/3 38/3/3
f 6/1/2 32/3/2 4/3/2
f 25/1/2 31/3/2 32/3/2
f 26/1/2 30/3/2 31/3/2
f 27/1/2 29/3/2 30/3/2
f 5/1/1 24/2/1 1/2/1
f 17/1/1 23/2/1 24/2/1
f 18/1/1 22/2/1 23/2/1
f 19/1/1 21/2/1 22/2/1
f 50/4/9 63/4/9 55/4/9
f 53/5/10 57/6/10 61/5/10
f 55/4/11 60/4/11 52/4/11
f 53/5/12 58/4/12 50/4/12
f 64/6/13 49/6/13 56/6/13
f 51/6/14 62/5/14 59/6/14
f 56/6/15 59/6/15 64/6/15
f 52/4/16 62/5/16 54/5/16
f 93/2/7 70/2/7 95/2/7
f 61/5/17 74/4/17 73/5/17
f 57/6/18 78/6/18 64/6/18
f 91/3/3 66/3/3 94/3/3
f 58/4/19 77/4/19 74/4/19
f 89/2/6 67/1/6 92/1/6
f 59/6/20 75/5/20 62/5/20
f 90/1/1 72/2/1 93/2/1
f 76/4/21 67/1/21 71/2/21
f 67/1/22 79/6/22 68/3/22
f 68/3/23 78/6/23 69/3/23
f 69/3/24 80/6/24 66/3/24
f 65/1/25 80/6/25 73/5/25
f 72/2/26 73/5/26 74/4/26
f 70/2/27 74/4/27 77/4/27
f 71/2/28 77/4/28 76/4/28
f 94/3/5 65/1/5 90/1/5
f 60/4/29 75/5/29 76/4/29
f 92/1/2 68/3/2 96/3/2
f 63/4/30 76/4/30 77/4/30
f 96/3/8 69/3/8 91/3/8
f 64/6/31 79/6/31 59/6/31
f 95/2/4 71/2/4 89/2/4
f 61/5/32 80/6/32 57/6/32
f 16/2/4 82/2/4 11/2/4
f 12/3/8 85/3/8 15/3/8
f 14/1/2 88/3/2 12/3/2
f 10/3/5 84/1/5 13/1/5
f 13/1/1 83/2/1 9/2/1
f 11/2/6 81/1/6 14/1/6
f 15/3/3 86/3/3 10/3/3
f 9/2/7 87/2/7 16/2/7
f 87/2/33 89/2/33 82/2/33
f 85/3/34 96/3/34 91/3/34
f 88/3/35 92/1/35 96/3/35
f 86/3/36 90/1/36 84/1/36
f 84/1/37 93/2/37 83/2/37
f 81/1/38 89/2/38 92/1/38
f 85/3/39 94/3/39 86/3/39
f 83/2/40 95/2/40 87/2/40
f 20/1/1 13/1/1 9/2/1
f 28/1/2 14/1/2 12/3/2
f 36/3/3 15/3/3 10/3/3
f 44/2/4 16/2/4 11/2/4
f 37/3/5 10/3/5 13/1/5
f 45/2/6 11/2/6 14/1/6
f 21/2/7 9/2/7 16/2/7
f 29/3/8 12/3/8 15/3/8
f 4/3/8 32/3/8 33/3/8
f 32/3/8 31/3/8 34/3/8
f 31/3/8 30/3/8 35/3/8
f 30/3/8 29/3/8 36/3/8
f 1/2/7 24/2/7 41/2/7
f 24/2/7 23/2/7 42/2/7
f 23/2/7 22/2/7 43/2/7
f 22/2/7 21/2/7 44/2/7
f 3/2/6 48/2/6 25/1/6
f 48/2/6 47/2/6 26/1/6
f 47/2/6 46/2/6 27/1/6
f 46/2/6 45/2/6 28/1/6
f 2/3/5 40/3/5 17/1/5
f 40/3/5 39/3/5 18/1/5
f 39/3/5 38/3/5 19/1/5
f 38/3/5 37/3/5 20/1/5
f 8/2/4 41/2/4 48/2/4
f 41/2/4 42/2/4 47/2/4
f 42/2/4 43/2/4 46/2/4
f 43/2/4 44/2/4 45/2/4
f 7/3/3 33/3/3 40/3/3
f 33/3/3 34/3/3 39/3/3
f 34/3/3 35/3/3 38/3/3
f 35/3/3 36/3/3 37/3/3
f 6/1/2 25/1/2 32/3/2
f 25/1/2 26/1/2 31/3/2
f 26/1/2 27/1/2 30/3/2
f 27/1/2 28/1/2 29/3/2
f 5/1/1 17/1/1 24/2/1
f 17/1/1 18/1/1 23/2/1
f 18/1/1 19/1/1 22/2/1
f 19/1/1 20/1/1 21/2/1
f 50/4/9 58/4/9 63/4/9
f 53/5/10 49/6/10 57/6/10
f 55/4/11 63/4/11 60/4/11
f 53/5/12 61/5/12 58/4/12
f 64/6/13 57/6/13 49/6/13
f 51/6/14 54/5/14 62/5/14
f 56/6/15 51/6/15 59/6/15
f 52/4/16 60/4/16 62/5/16
f 93/2/7 72/2/7 70/2/7
f 61/5/17 58/4/17 74/4/17
f 57/6/18 80/6/18 78/6/18
f 91/3/3 69/3/3 66/3/3
f 58/4/19 63/4/19 77/4/19
f 89/2/6 71/2/6 67/1/6
f 59/6/20 79/6/20 75/5/20
f 90/1/1 65/1/1 72/2/1
f 76/4/41 75/5/41 67/1/41
f 67/1/42 75/5/42 79/6/42
f 68/3/43 79/6/43 78/6/43
f 69/3/44 78/6/44 80/6/44
f 65/1/45 66/3/45 80/6/45
f 72/2/46 65/1/46 73/5/46
f 70/2/47 72/2/47 74/4/47
f 71/2/48 70/2/48 77/4/48
f 94/3/5 66/3/5 65/1/5
f 60/4/29 62/5/29 75/5/29
f 92/1/2 67/1/2 68/3/2
f 63/4/30 60/4/30 76/4/30
f 96/3/8 68/3/8 69/3/8
f 64/6/31 78/6/31 79/6/31
f 95/2/4 70/2/4 71/2/4
f 61/5/32 73/5/32 80/6/32
f 16/2/4 87/2/4 82/2/4
f 12/3/8 88/3/8 85/3/8
f 14/1/2 81/1/2 88/3/2
f 10/3/5 86/3/5 84/1/5
f 13/1/1 84/1/1 83/2/1
f 11/2/6 82/2/6 81/1/6
f 15/3/3 85/3/3 86/3/3
f 9/2/7 83/2/7 87/2/7
f 87/2/33 95/2/33 89/2/33
f 85/3/34 88/3/34 96/3/34
f 88/3/35 81/1/35 92/1/35
f 86/3/36 94/3/36 90/1/36
f 84/1/37 90/1/37 93/2/37
f 81/1/38 82/2/38 89/2/38
f 85/3/39 91/3/39 94/3/39
f 83/2/40 93/2/40 95/2/40
