# Blender 4.3.2
# www.blender.org
mtllib cev2.mtl
o Cube.001
v -0.606381 4.937579 -5.035678
v 0.606381 4.937579 -5.035678
v -0.606381 6.150341 -5.035678
v 0.606381 6.150341 -5.035678
v 0.000000 4.686408 -5.035678
v 0.000000 6.401512 -5.035678
v 0.857552 5.543960 -5.035678
v -0.857552 5.543960 -5.035678
v -0.606381 4.937579 -16.055439
v 0.606381 4.937579 -16.055439
v -0.606381 6.150341 -16.055439
v 0.606381 6.150341 -16.055439
v 0.000000 4.686408 -16.055439
v 0.000000 6.401512 -16.055439
v 0.857552 5.543960 -16.055439
v -0.857552 5.543960 -16.055439
v 0.000000 4.686408 -7.239631
v 0.000000 4.686408 -9.443583
v 0.000000 4.686408 -11.647535
v 0.000000 4.686408 -13.851487
v -0.606381 4.937579 -13.851487
v -0.606381 4.937579 -11.647535
v -0.606381 4.937579 -9.443583
v -0.606381 4.937579 -7.239631
v 0.000000 6.401512 -7.239631
v 0.000000 6.401512 -9.443583
v 0.000000 6.401512 -11.647535
v 0.000000 6.401512 -13.851487
v 0.606381 6.150341 -13.851487
v 0.606381 6.150341 -11.647535
v 0.606381 6.150341 -9.443583
v 0.606381 6.150341 -7.239631
v 0.857552 5.543960 -7.239631
v 0.857552 5.543960 -9.443583
v 0.857552 5.543960 -11.647535
v 0.857552 5.543960 -13.851487
v 0.606381 4.937579 -13.851487
v 0.606381 4.937579 -11.647535
v 0.606381 4.937579 -9.443583
v 0.606381 4.937579 -7.239631
v -0.857552 5.543960 -7.239631
v -0.857552 5.543960 -9.443583
v -0.857552 5.543960 -11.647535
v -0.857552 5.543960 -13.851487
v -0.606381 6.150341 -13.851487
v -0.606381 6.150341 -11.647535
v -0.606381 6.150341 -9.443583
v -0.606381 6.150341 -7.239631
v 0.367013 5.177311 -4.848492
v -0.367014 5.177311 -4.848492
v 0.367013 5.910610 -4.815787
v -0.367014 5.910610 -4.815787
v -0.000000 5.025440 -4.855266
v -0.000000 6.062481 -4.809013
v -0.519036 5.543961 -4.832139
v 0.519035 5.543961 -4.832139
v 0.361248 5.177311 -16.192265
v -0.372779 5.177311 -16.192266
v 0.361248 5.910610 -16.159561
v -0.372779 5.910610 -16.159561
v -0.005765 5.025440 -16.199039
v -0.005766 6.062481 -16.152786
v -0.524801 5.543961 -16.175913
v 0.513270 5.543961 -16.175913
v 0.000000 4.287702 -19.879097
v 0.888309 4.655651 -19.879097
v 0.000000 6.800218 -19.879097
v 0.888309 6.432268 -19.879097
v 1.256258 5.543960 -19.879097
v -1.256258 5.543960 -19.879097
v -0.888308 6.432268 -19.879097
v -0.888308 4.655651 -19.879097
v -0.005765 5.025440 -19.726807
v -0.372779 5.177311 -19.720034
v -0.005766 6.062481 -19.680553
v -0.372779 5.910610 -19.687328
v -0.524801 5.543961 -19.703680
v 0.513270 5.543961 -19.703680
v 0.361248 5.910610 -19.687328
v 0.361248 5.177311 -19.720032
v -1.256258 5.543960 -18.014490
v -0.888308 6.432268 -18.014490
v 0.888309 6.432268 -18.014490
v 1.256258 5.543960 -18.014490
v -0.888308 4.655651 -18.014490
v 0.000000 4.287702 -18.014490
v 0.000000 6.800218 -18.014490
v 0.888309 4.655651 -18.014490
vn -0.3827 -0.9239 -0.0000
vn 0.3827 0.9239 -0.0000
vn 0.9239 -0.3827 -0.0000
vn -0.9239 0.3827 -0.0000
vn 0.3827 -0.9239 -0.0000
vn -0.3827 0.9239 -0.0000
vn -0.9239 -0.3827 -0.0000
vn 0.9239 0.3827 -0.0000
vn 0.9237 0.3830 -0.0005
vn -0.3824 0.9240 0.0002
vn 0.9238 -0.3830 -0.0005
vn 0.3824 0.9240 -0.0002
vn -0.9238 0.3830 0.0005
vn -0.3824 -0.9240 0.0002
vn -0.9237 -0.3830 0.0005
vn 0.3824 -0.9240 -0.0002
vn 0.9237 0.3830 -0.0000
vn -0.3824 -0.9240 -0.0000
vn -0.3824 0.9240 -0.0000
vn -0.9237 -0.3830 -0.0000
vn 0.1167 -0.2390 -0.9640
vn -0.1240 -0.2570 -0.9584
vn -0.2772 -0.0722 -0.9581
vn -0.2276 0.1374 -0.9640
vn -0.0867 0.2094 -0.9740
vn 0.0837 0.2021 -0.9758
vn 0.2116 0.0877 -0.9734
vn 0.2321 -0.0961 -0.9679
vn -0.9237 0.3830 -0.0000
vn 0.3824 0.9240 -0.0000
vn 0.3824 -0.9240 -0.0000
vn 0.9237 -0.3830 -0.0000
vn 0.3761 0.9080 0.1848
vn 0.3761 -0.9080 0.1848
vn -0.9080 -0.3761 0.1848
vn 0.9080 -0.3761 0.1848
vn 0.9080 0.3761 0.1848
vn -0.9080 0.3761 0.1848
vn -0.3761 -0.9080 0.1848
vn -0.3761 0.9080 0.1848
vn 0.1073 -0.2592 -0.9599
vn -0.1034 -0.2495 -0.9628
vn -0.2287 -0.0947 -0.9689
vn -0.2085 0.0864 -0.9742
vn -0.0652 0.2012 -0.9774
vn 0.0743 0.2229 -0.9720
vn 0.2310 0.1387 -0.9630
vn 0.2811 -0.0739 -0.9568
vt 0.551128 0.147324
vt 0.551128 0.148343
vt 0.551128 0.149362
vt 0.559210 0.155956
vt 0.558260 0.155956
vt 0.557310 0.155956
vt 0.551129 0.147324
s 0
usemtl Material.002
f 9/1/1 20/2/1 21/1/1
f 12/3/2 28/2/2 29/3/2
f 10/3/3 36/3/3 37/3/3
f 11/1/4 44/1/4 45/1/4
f 13/2/5 37/3/5 20/2/5
f 14/2/6 45/1/6 28/2/6
f 16/1/7 21/1/7 44/1/7
f 15/3/8 29/3/8 36/3/8
f 33/3/8 4/3/8 7/3/8
f 34/3/8 32/3/8 33/3/8
f 35/3/8 31/3/8 34/3/8
f 36/3/8 30/3/8 35/3/8
f 41/1/7 1/1/7 8/1/7
f 42/1/7 24/1/7 41/1/7
f 43/1/7 23/1/7 42/1/7
f 44/1/7 22/1/7 43/1/7
f 25/2/6 3/1/6 6/2/6
f 26/2/6 48/1/6 25/2/6
f 27/2/6 47/1/6 26/2/6
f 28/2/6 46/1/6 27/2/6
f 17/2/5 2/3/5 5/2/5
f 18/2/5 40/3/5 17/2/5
f 19/2/5 39/3/5 18/2/5
f 20/2/5 38/3/5 19/2/5
f 48/1/4 8/1/4 3/1/4
f 47/1/4 41/1/4 48/1/4
f 46/1/4 42/1/4 47/1/4
f 45/1/4 43/1/4 46/1/4
f 40/3/3 7/3/3 2/3/3
f 39/3/3 33/3/3 40/3/3
f 38/3/3 34/3/3 39/3/3
f 37/3/3 35/3/3 38/3/3
f 32/3/2 6/2/2 4/3/2
f 31/3/2 25/2/2 32/3/2
f 30/3/2 26/2/2 31/3/2
f 29/3/2 27/2/2 30/3/2
f 24/1/1 5/2/1 1/1/1
f 23/1/1 17/2/1 24/1/1
f 22/1/1 18/2/1 23/1/1
f 21/1/1 19/2/1 22/1/1
f 50/4/9 63/4/9 55/4/9
f 53/5/10 57/6/10 61/5/10
f 55/4/11 60/4/11 52/4/11
f 53/5/12 58/4/12 50/4/12
f 64/6/13 49/6/13 56/6/13
f 51/6/14 62/5/14 59/6/14
f 56/6/15 59/6/15 64/6/15
f 52/4/16 62/5/16 54/5/16
f 58/4/17 77/4/17 63/4/17
f 87/2/6 71/1/6 82/7/6
f 59/6/18 75/5/18 79/6/18
f 85/1/1 65/2/1 86/2/1
f 61/5/19 80/6/19 73/5/19
f 82/7/4 70/1/4 81/1/4
f 64/6/20 79/6/20 78/6/20
f 84/3/8 68/3/8 83/3/8
f 71/1/21 75/5/21 76/4/21
f 67/2/22 79/6/22 75/5/22
f 68/3/23 78/6/23 79/6/23
f 69/3/24 80/6/24 78/6/24
f 65/2/25 80/6/25 66/3/25
f 72/1/26 73/5/26 65/2/26
f 70/1/27 74/4/27 72/1/27
f 71/1/28 77/4/28 70/1/28
f 88/3/3 69/3/3 84/3/3
f 57/6/29 78/6/29 80/6/29
f 61/5/30 74/4/30 58/4/30
f 81/1/7 72/1/7 85/1/7
f 86/2/5 66/3/5 88/3/5
f 60/4/31 75/5/31 62/5/31
f 83/3/2 67/2/2 87/2/2
f 63/4/32 76/4/32 60/4/32
f 12/3/33 87/2/33 14/2/33
f 13/2/34 88/3/34 10/3/34
f 16/1/35 85/1/35 9/1/35
f 15/3/36 88/3/36 84/3/36
f 15/3/37 83/3/37 12/3/37
f 16/1/38 82/7/38 81/1/38
f 13/2/39 85/1/39 86/2/39
f 11/1/40 87/2/40 82/7/40
f 9/1/1 13/2/1 20/2/1
f 12/3/2 14/2/2 28/2/2
f 10/3/3 15/3/3 36/3/3
f 11/1/4 16/1/4 44/1/4
f 13/2/5 10/3/5 37/3/5
f 14/2/6 11/1/6 45/1/6
f 16/1/7 9/1/7 21/1/7
f 15/3/8 12/3/8 29/3/8
f 33/3/8 32/3/8 4/3/8
f 34/3/8 31/3/8 32/3/8
f 35/3/8 30/3/8 31/3/8
f 36/3/8 29/3/8 30/3/8
f 41/1/7 24/1/7 1/1/7
f 42/1/7 23/1/7 24/1/7
f 43/1/7 22/1/7 23/1/7
f 44/1/7 21/1/7 22/1/7
f 25/2/6 48/1/6 3/1/6
f 26/2/6 47/1/6 48/1/6
f 27/2/6 46/1/6 47/1/6
f 28/2/6 45/1/6 46/1/6
f 17/2/5 40/3/5 2/3/5
f 18/2/5 39/3/5 40/3/5
f 19/2/5 38/3/5 39/3/5
f 20/2/5 37/3/5 38/3/5
f 48/1/4 41/1/4 8/1/4
f 47/1/4 42/1/4 41/1/4
f 46/1/4 43/1/4 42/1/4
f 45/1/4 44/1/4 43/1/4
f 40/3/3 33/3/3 7/3/3
f 39/3/3 34/3/3 33/3/3
f 38/3/3 35/3/3 34/3/3
f 37/3/3 36/3/3 35/3/3
f 32/3/2 25/2/2 6/2/2
f 31/3/2 26/2/2 25/2/2
f 30/3/2 27/2/2 26/2/2
f 29/3/2 28/2/2 27/2/2
f 24/1/1 17/2/1 5/2/1
f 23/1/1 18/2/1 17/2/1
f 22/1/1 19/2/1 18/2/1
f 21/1/1 20/2/1 19/2/1
f 50/4/9 58/4/9 63/4/9
f 53/5/10 49/6/10 57/6/10
f 55/4/11 63/4/11 60/4/11
f 53/5/12 61/5/12 58/4/12
f 64/6/13 57/6/13 49/6/13
f 51/6/14 54/5/14 62/5/14
f 56/6/15 51/6/15 59/6/15
f 52/4/16 60/4/16 62/5/16
f 58/4/17 74/4/17 77/4/17
f 87/2/6 67/2/6 71/1/6
f 59/6/18 62/5/18 75/5/18
f 85/1/1 72/1/1 65/2/1
f 61/5/19 57/6/19 80/6/19
f 82/7/4 71/1/4 70/1/4
f 64/6/20 59/6/20 79/6/20
f 84/3/8 69/3/8 68/3/8
f 71/1/41 67/2/41 75/5/41
f 67/2/42 68/3/42 79/6/42
f 68/3/43 69/3/43 78/6/43
f 69/3/44 66/3/44 80/6/44
f 65/2/45 73/5/45 80/6/45
f 72/1/46 74/4/46 73/5/46
f 70/1/47 77/4/47 74/4/47
f 71/1/48 76/4/48 77/4/48
f 88/3/3 66/3/3 69/3/3
f 57/6/29 64/6/29 78/6/29
f 61/5/30 73/5/30 74/4/30
f 81/1/7 70/1/7 72/1/7
f 86/2/5 65/2/5 66/3/5
f 60/4/31 76/4/31 75/5/31
f 83/3/2 68/3/2 67/2/2
f 63/4/32 77/4/32 76/4/32
f 12/3/33 83/3/33 87/2/33
f 13/2/34 86/2/34 88/3/34
f 16/1/35 81/1/35 85/1/35
f 15/3/36 10/3/36 88/3/36
f 15/3/37 84/3/37 83/3/37
f 16/1/38 11/1/38 82/7/38
f 13/2/39 9/1/39 85/1/39
f 11/1/40 14/2/40 87/2/40
