# Blender 4.3.2
# www.blender.org
o Cube.001
v 0.013146 -0.028471 -0.032721
v -0.011867 -0.028079 0.030335
v -0.012811 -0.028602 -0.032329
v 0.031776 -0.028224 -0.014644
v -0.030498 -0.028325 0.012258
v 0.014090 -0.027947 0.029943
v -0.030889 -0.028542 -0.013698
v 0.032167 -0.028007 0.011312
v 0.012845 0.029483 -0.033201
v -0.012169 0.029874 0.029855
v -0.013113 0.029350 -0.032809
v 0.031474 0.029729 -0.015125
v -0.030800 0.029627 0.011778
v 0.013788 0.030006 0.029463
v -0.031190 0.029412 -0.014179
v 0.031866 0.029946 0.010832
v 0.003308 -0.032735 -0.420884
v -0.004652 -0.032531 -0.421153
v 0.003280 0.022666 -0.421090
v -0.007567 0.022443 -0.421332
vn 0.9997 0.0050 -0.0247
vn 0.6964 -0.0023 -0.7177
vn -0.7177 -0.0095 -0.6963
vn 0.9999 0.0051 -0.0151
vn -0.6964 0.0023 0.7177
vn 0.0151 0.0084 0.9999
vn -0.9999 -0.0051 0.0151
vn 0.7177 0.0095 0.6963
vn 0.0052 -1.0000 0.0083
vn 0.0053 -1.0000 0.0082
vn -0.0052 1.0000 -0.0083
vn 0.0323 -0.0035 -0.9995
vn 0.0234 -0.0022 -0.9997
vn 0.0336 -0.0037 -0.9994
vn 0.0052 -0.9999 0.0109
vn 0.0055 -0.9999 0.0106
vn -0.9998 -0.0054 -0.0209
vn -0.0201 0.9996 -0.0181
vn 0.9997 0.0004 -0.0253
vn 0.0052 -1.0000 0.0082
vn -0.0052 0.9999 -0.0165
vn -0.0052 1.0000 -0.0077
vn -0.0051 1.0000 -0.0082
vn -0.0053 1.0000 -0.0083
vn 0.0224 -0.0021 -0.9997
vn -0.0258 -0.9996 0.0096
vn -0.9985 -0.0530 -0.0133
vn -0.0054 0.9998 -0.0174
vt 0.664311 0.156428
vt 0.664315 0.156428
vt 0.664324 0.156428
vt 0.664336 0.156428
vt 0.664332 0.156428
s 1
f 1/1/1 19/1/1 9/1/1
f 1/1/2 12/2/2 4/2/2
f 7/3/3 11/2/3 3/2/3
f 4/2/4 16/3/4 8/3/4
f 2/4/5 13/5/5 5/5/5
f 2/4/6 14/5/6 10/4/6
f 7/3/7 13/5/7 15/3/7
f 8/3/8 14/5/8 6/5/8
f 6/5/9 5/5/9 3/2/10
f 13/5/11 14/5/11 12/2/11
f 18/2/12 19/1/13 17/1/14
f 3/2/10 17/1/15 1/1/16
f 11/2/17 18/2/17 3/2/17
f 11/2/18 19/1/18 20/2/18
f 1/1/19 17/1/19 19/1/19
f 1/1/2 9/1/2 12/2/2
f 7/3/3 15/3/3 11/2/3
f 4/2/4 12/2/4 16/3/4
f 2/4/5 10/4/5 13/5/5
f 2/4/6 6/5/6 14/5/6
f 7/3/7 5/5/7 13/5/7
f 8/3/8 16/3/8 14/5/8
f 3/2/10 1/1/16 4/2/9
f 4/2/9 8/3/9 6/5/9
f 6/5/9 2/4/20 5/5/9
f 5/5/9 7/3/9 3/2/10
f 3/2/10 4/2/9 6/5/9
f 12/2/11 9/1/21 11/2/22
f 11/2/22 15/3/23 13/5/11
f 13/5/11 10/4/11 14/5/11
f 14/5/11 16/3/24 12/2/11
f 12/2/11 11/2/22 13/5/11
f 18/2/12 20/2/25 19/1/13
f 3/2/26 18/2/26 17/1/26
f 11/2/27 20/2/27 18/2/27
f 11/2/22 9/1/21 19/1/28
